<?xml version="1.0" encoding="utf-8"?>
<!-- Generator: Adobe Illustrator 24.1.0, SVG Export Plug-In . SVG Version: 6.00 Build 0)  -->
<svg version="1.1" id="Layer_1" xmlns="http://www.w3.org/2000/svg" xmlns:xlink="http://www.w3.org/1999/xlink" x="0px" y="0px"
	 viewBox="0 0 24 24" style="enable-background:new 0 0 24 24;" xml:space="preserve">
<style type="text/css">
	.st0{fill:none;stroke:#000000;stroke-linecap:round;stroke-linejoin:round;}
</style>
<polyline class="st0" points="21.5,2.5 19.5,8.5 15.5,4.5 21.5,2.5 19,5 "/>
<polyline class="st0" points="5.5,16.5 6.5,16.5 5.5,17.5 1.5,17.5 5.5,13.5 9.5,13.5 7.5,15.5 6.5,15.5 "/>
<polyline class="st0" points="8.5,17.5 8.5,16.5 10.5,14.5 10.5,18.5 6.5,22.5 6.5,18.5 7.5,17.5 7.5,18.5 "/>
<path class="st0" d="M18,7C18,7,4.5,20.5,4.5,20.5c-0.3,0.3-0.7,0.3-1,0s-0.3-0.7,0-1C3.5,19.5,17,6,17,6"/>
</svg>
