<svg 
  xmlns="http://www.w3.org/2000/svg" 
  height="24"
  width="24"
  viewBox="0 0 24 24"
  fill="none"
  stroke="currentColor"
  stroke-width="1"
  stroke-linecap="round"
  stroke-linejoin="round"
>
  <path d="M8.5,20.5A2.23,2.23,0,0,1,6,21.7a.52.52,0,0,1-.36-.65A55.67,55.67,0,0,0,7.5,5.49a1,1,0,0,1,1-1h0a1,1,0,0,1,1,1S9.5,16.5,8.5,20.5Z"/>
  <path d="M15.5,14.5a9.67,9.67,0,0,0-6-4h-3v-4h3a9.78,9.78,0,0,0,6-4,10.42,10.42,0,0,1,2,6A10.42,10.42,0,0,1,15.5,14.5Z"/>
  <path d="M13.64,4.5a10,10,0,0,1,.86,4,10,10,0,0,1-.86,4"/>
  <line x1="9.5" y1="8" x2="9.5" y2="9"/>
</svg>