<svg 
  xmlns="http://www.w3.org/2000/svg" 
  height="24"
  width="24"
  viewBox="0 0 24 24"
  fill="none"
  stroke="currentColor"
  stroke-width="1"
  stroke-linecap="round"
  stroke-linejoin="round"
>
  <path d="M10.12,8.42c-3.06,1.4-5.32,5.91-5.32,9C4.8,21.18,8,21.5,12,21.5s7.2-.32,7.2-4.05c0-3.12-2.26-7.63-5.32-9"/>
  <path d="M8,13.29A9.17,9.17,0,0,0,6.8,17.45c0,1.18.2,1.9,3.91,2"/>
  <path d="M9.86,6.74A4,4,0,0,1,9,4.5C9,3.12,10.34,3,12,3s3,.12,3,1.5a4,4,0,0,1-.86,2.24"/>
  <rect x="9.5" y="6.5" width="5" height="2" rx="1"/>
  <path d="M11.45,6.5a1.4,1.4,0,0,1-.82-1.12"/>
  <path d="M12.43,6.5a2.07,2.07,0,0,0,1-1"/>
  <path d="M11.45,8.5a4.25,4.25,0,0,0-1.88,2.59"/>
  <path d="M12.43,8.5a5.43,5.43,0,0,1,1.36,2.13"/>
</svg>