<svg 
  xmlns="http://www.w3.org/2000/svg" 
  height="24"
  width="24"
  viewBox="0 0 24 24"
  fill="none"
  stroke="currentColor"
  stroke-width="1"
  stroke-linecap="round"
  stroke-linejoin="round"
>
  <path d="M19.5,4.5A2,2,0,0,0,15.56,4a2,2,0,0,0,.53,1.91s-2.19,2.33-5,5.22a51.46,51.46,0,0,1-4.57,4.32,1,1,0,0,1-1.17.25A2.07,2.07,0,0,0,4,15.56a2,2,0,0,0,.5,3.94,2,2,0,1,0,3.41-1.41,51.29,51.29,0,0,1,4.9-5.27C16.34,9.4,17.5,8.5,17.5,8.5a1,1,0,0,1,1.12-.2A2.08,2.08,0,0,0,20,8.44a2,2,0,0,0-.5-3.94Z"/>
  <path d="M16.89,6.4a1.79,1.79,0,0,1-.8-.49"/>
  <path d="M7.12,17.6a2,2,0,0,1,.79.49"/>
</svg>