<svg 
  xmlns="http://www.w3.org/2000/svg" 
  height="24"
  width="24"
  viewBox="0 0 24 24"
  fill="none"
  stroke="currentColor"
  stroke-width="1"
  stroke-linecap="round"
  stroke-linejoin="round"
>
  <rect x="4.5" y="17.5" width="15" height="3" rx="1.5"/>
  <path d="M17.55,17.5s.95-9,1.95-10a5.5,5.5,0,0,0-5,3c-1-5-2.5-7-2.5-7s-1.5,2-2.5,7a5.5,5.5,0,0,0-5-3c1,1,2,10,2,10"/>
  <ellipse cx="12" cy="13.5" rx="1.5" ry="2"/>
  <path d="M5.64,11.56A1,1,0,0,1,6,11.5c.83,0,1.5.9,1.5,2a1.89,1.89,0,0,1-1.29,2"/>
  <path d="M18.36,11.56A1,1,0,0,0,18,11.5c-.83,0-1.5.9-1.5,2a1.89,1.89,0,0,0,1.29,2"/>
  <line x1="6.57" y1="20.5" x2="9.5" y2="17.5"/>
  <line x1="10.5" y1="20.5" x2="13.5" y2="17.5"/>
  <line x1="14.5" y1="20.5" x2="17.5" y2="17.5"/>
</svg>