<svg 
  xmlns="http://www.w3.org/2000/svg" 
  height="24"
  width="24"
  viewBox="0 0 24 24"
  fill="none"
  stroke="currentColor"
  stroke-width="1"
  stroke-linecap="round"
  stroke-linejoin="round"
>
  <path d="M16.5,8.41V18.5a1,1,0,0,1-1,1h-8a1,1,0,0,1-1-1V8.41"/>
  <path d="M16,5.5a1.47,1.47,0,0,0-.56.11A1.49,1.49,0,0,0,14,4.5a1.54,1.54,0,0,0-.64.15A3,3,0,0,0,7.5,5.5s0,.06,0,.09A1.71,1.71,0,0,0,7,5.5a1.5,1.5,0,0,0,0,3,1.51,1.51,0,0,0,1.37-.89,3,3,0,0,0,2.13.89,2.89,2.89,0,0,0,1-.19,1.23,1.23,0,0,0,0,.19,2,2,0,0,0,4,0s0-.06,0-.09A1.71,1.71,0,0,0,16,8.5a1.5,1.5,0,0,0,0-3Z"/>
  <path d="M18.53,9.5h-2v2H18a.5.5,0,0,1,.5.5v3a.5.5,0,0,1-.5.5H16.5v2h2a2,2,0,0,0,2-2V11.47A2,2,0,0,0,18.53,9.5Z"/>
  <line x1="9.5" y1="10.5" x2="9.5" y2="17.5"/>
  <line x1="13.5" y1="10.5" x2="13.5" y2="17.5"/>
  <path d="M9.5,5.5a1,1,0,0,1,1-1"/>
  <path d="M11.5,8.5A2,2,0,0,1,12,7.23"/>
</svg>