<svg 
  xmlns="http://www.w3.org/2000/svg" 
  height="24"
  width="24"
  viewBox="0 0 24 24"
  fill="none"
  stroke="currentColor"
  stroke-width="1"
  stroke-linecap="round"
  stroke-linejoin="round"
>
  <path d="M13.9,12a23.63,23.63,0,0,1,2.79-2,1.18,1.18,0,0,1,1.23,0,2,2,0,1,0,1.21-3.71A2,2,0,1,0,15.6,7.29s-1,.78-3.63,3.09"/>
  <path d="M10.16,12A26.18,26.18,0,0,1,7.4,14a1.45,1.45,0,0,1-1.32.08,2,2,0,0,0-1.36-.26,2,2,0,0,0-1.58,1.38,2,2,0,0,0,1.73,2.59A2,2,0,1,0,8.4,16.71,28.48,28.48,0,0,1,12,13.51"/>
  <path d="M16.35,7.85a2,2,0,0,1-.75-.56"/>
  <path d="M7.65,16.15a2.08,2.08,0,0,1,.75.56"/>
  <path d="M19.13,17.82a2,2,0,1,0-1.71-3.28s-1.51-1-4.63-3.49S9,7.94,9,7.94a1.12,1.12,0,0,1-.29-1.22A2,2,0,0,0,7.13,4,2,2,0,0,0,4.87,6.18,2,2,0,0,0,3.14,8.77a2,2,0,0,0,1.58,1.38,2,2,0,0,0,1.86-.69s1,.21,4.67,3.42S15,16.18,15,16.18a1,1,0,0,1,.29,1.1A2,2,0,0,0,16.88,20,2,2,0,0,0,19.13,17.82Z"/>
  <path d="M17,15.38a2,2,0,0,1,.42-.84"/>
  <path d="M7,8.63a2,2,0,0,1-.42.83"/>
</svg>