<svg 
  xmlns="http://www.w3.org/2000/svg" 
  height="24"
  width="24"
  viewBox="0 0 24 24"
  fill="none"
  stroke="currentColor"
  stroke-width="1"
  stroke-linecap="round"
  stroke-linejoin="round"
>
  <path d="M20.65,3.7c-2.42,1.75-2.71,1.35-5.13,3.1S13.4,9,11,10.7s-2.71,1.35-5.13,3.1"/>
  <path d="M20.7,3.65C19,6.06,18.55,5.77,16.8,8.18s-1.35,2.71-3.1,5.13-2.15,2.13-3.9,4.54"/>
  <path d="M20.68,3.68c-2.09,2.08-2.44,1.73-4.52,3.81S14.43,9.93,12.34,12s-2.43,1.73-4.52,3.81"/>
  <path d="M11.5,19.5a1.42,1.42,0,0,1-2,0l-6-6h0a1.42,1.42,0,0,1,2,0l6,6Z"/>
  <path d="M8,18,4.5,21.5a1.42,1.42,0,0,1-2,0h0a1.42,1.42,0,0,1,0-2L6,16"/>
  <path d="M21.5,12A10.18,10.18,0,0,0,20.45,9.5,10.18,10.18,0,0,0,19.4,12a1.05,1.05,0,0,0,2.1,0Z"/>
</svg>