<svg 
  xmlns="http://www.w3.org/2000/svg" 
  height="24"
  width="24"
  viewBox="0 0 24 24"
  fill="none"
  stroke="currentColor"
  stroke-width="1"
  stroke-linecap="round"
  stroke-linejoin="round"
>
<path d="M6.74,3.52c.7.06,2.81.23,5.26.23s4.56-.17,5.26-.23"/>
<path d="M17.25,11.48c-.7-.06-2.8-.23-5.25-.23s-4.55.17-5.25.23"/>
<path d="M14,9.79c-.63,0-1.32,0-2,0s-1.38,0-2,0"/>
<path d="M6.48,12c-1.09,0-2-1.4-2-2.5v-4c0-1.1.92-2.5,2-2.5l.66,1.51S6.6,5,6.6,5.34s.73.88.73.88-.67.28-.67.66.67.62.67.62-.79.56-.79.95.59.77.59.77-.41.44-.41.73.51.55.51.55Z"/>
<path d="M17.52,12c1.09,0,2-1.4,2-2.5v-4c0-1.1-.92-2.5-2-2.5l-.66,1.51s.58.47.58.83-.73.88-.73.88.67.28.67.66-.67.62-.67.62.79.56.79.95-.59.77-.59.77.41.44.41.73-.51.55-.51.55Z"/>
<path d="M13.5,11.24V20A1.5,1.5,0,0,1,12,21.5h0A1.5,1.5,0,0,1,10.5,20V11.24"/>
<path d="M13.5,4V2.29c0-.16-.67-.29-1.5-.29h0c-.83,0-1.5.13-1.5.29V4"/>
<line x1="10.5" y1="12.24" x2="13.5" y2="12.24"/>
</svg>