<svg 
  xmlns="http://www.w3.org/2000/svg" 
  height="24"
  width="24"
  viewBox="0 0 24 24"
  fill="none"
  stroke="currentColor"
  stroke-width="1"
  stroke-linecap="round"
  stroke-linejoin="round"
>
  <rect x="4.5" y="10.5" width="15" height="10" rx="1"/>
  <path d="M6.5,10.5v-1a5.5,5.5,0,0,1,11,0v1"/>
  <path d="M15,10.5V9.31a3,3,0,1,0-6,0V10.5"/>
  <path d="M12.94,15.16A1.48,1.48,0,0,0,13.5,14a1.5,1.5,0,0,0-3,0,1.48,1.48,0,0,0,.56,1.16h0L10.5,18.5h3L13,15.16Z"/>
  <polyline points="17.5 12.5 17.5 18.5 16.5 18.5"/>
  <line x1="6.5" y1="16.5" x2="6.5" y2="12.5"/>
</svg>