<svg 
  xmlns="http://www.w3.org/2000/svg" 
  height="24"
  width="24"
  viewBox="0 0 24 24"
  fill="none"
  stroke="currentColor"
  stroke-width="1"
  stroke-linecap="round"
  stroke-linejoin="round"
>
  <path d="M14.5,8V5.5a1,1,0,0,0,0-2h-5a1,1,0,0,0,0,2V8a6.5,6.5,0,0,0-4,6.13,6.6,6.6,0,0,0,6.4,6.37A6.5,6.5,0,0,0,14.5,8Z"/>
  <path d="M5.55,13.25c2.15,0,2.15.5,4.3.5s2.15-.5,4.3-.5,2.15.5,4.3.5"/>
  <line x1="11.5" y1="5.5" x2="12.5" y2="5.5"/>
  <line x1="5.87" y1="16.13" x2="8.24" y2="13.76"/>
  <line x1="11.31" y1="13.69" x2="6.95" y2="18.05"/>
  <line x1="8.53" y1="19.47" x2="14.69" y2="13.31"/>
  <line x1="10.65" y1="20.35" x2="17.25" y2="13.75"/>
  <line x1="13.73" y1="20.27" x2="18.27" y2="15.73"/>
  <path d="M8.24,11.53A4.5,4.5,0,0,1,12,9.5"/>
</svg>