<svg 
  xmlns="http://www.w3.org/2000/svg" 
  height="24"
  width="24"
  viewBox="0 0 24 24"
  fill="none"
  stroke="currentColor"
  stroke-width="1"
  stroke-linecap="round"
  stroke-linejoin="round"
>
  <circle cx="12" cy="12" r="10.5"/>
  <circle cx="12" cy="12" r="8.5"/>
  <circle cx="12" cy="12" r="3.5"/>
  <path d="M12,13.5A1.5,1.5,0,0,1,10.5,12"/>
  <path d="M11.41,3.66c-.73.73-.8.66-1.53,1.39s-.65.8-1.38,1.52S7.7,7.23,7,8s-.66.8-1.39,1.53-.8.66-1.53,1.39a7.27,7.27,0,0,0-.53.57"/>
  <path d="M8.56,11.37l-1,1c-.47.47-.4.54-.87,1s-.55.4-1,.88-.4.55-.88,1a3.21,3.21,0,0,1-.45.4"/>
  <path d="M15.68,4.34a4.94,4.94,0,0,1-.39.44c-.47.47-.54.4-1,.87s-.4.55-.87,1-.55.4-1,.88l-1,1"/>
  <polyline points="12.58 15.45 11.69 16.45 9.17 18.69 8.31 19.66"/>
  <polyline points="19.66 8.31 18.7 9.16 16.46 11.68 15.45 12.58"/>
  <path d="M20.36,12.71c-.68.68-.77.62-1.48,1.34s-.65.8-1.38,1.52S16.7,16.23,16,17s-.66.8-1.39,1.53-.8.66-1.53,1.39a7.76,7.76,0,0,0-.56.61"/>
</svg>