<svg 
  xmlns="http://www.w3.org/2000/svg" 
  height="24"
  width="24"
  viewBox="0 0 24 24"
  fill="none"
  stroke="currentColor"
  stroke-width="1"
  stroke-linecap="round"
  stroke-linejoin="round"
>
<clipPath id="clip-path">
  <path d="M12,19.4V4.66a28.62,28.62,0,0,0,7.46,1.71C19.06,15.42,15.72,18.11,12,19.4Z"/>
</clipPath>
<path d="M12,21.5c6.5-2,9.5-7,9.5-17a27.46,27.46,0,0,1-9.5-2,27.58,27.58,0,0,1-9.5,2C2.5,14.5,5.5,19.5,12,21.5Z"/>
<path d="M12,19.4c-3.72-1.29-7.06-4-7.46-13A28.8,28.8,0,0,0,12,4.66a28.62,28.62,0,0,0,7.46,1.71C19.06,15.42,15.72,18.11,12,19.4Z"/>
<line x1="12" y1="4.66" x2="12" y2="19.4"/>
<g>
  <line x1="10.5" y1="10.5" x2="15.5" y2="5.5"/>
  <line x1="19.5" y1="5.5" x2="10.5" y2="14.5"/>
  <line x1="10.5" y1="18.5" x2="20.5" y2="8.5"/>
</g>
</svg>