<svg 
  xmlns="http://www.w3.org/2000/svg" 
  height="24"
  width="24"
  viewBox="0 0 24 24"
  fill="none"
  stroke="currentColor"
  stroke-width="1"
  stroke-linecap="round"
  stroke-linejoin="round"
>
  <path d="M19.55,4.07a4,4,0,1,1-5.4,1.25"/>
  <path d="M19.5,7.5a2,2,0,0,1-2,2"/>
  <path d="M18.63,11.34c-.26,0-1.88,1.16-2.27,1.18a12.16,12.16,0,0,1-1.76-.3l-2.22,1.19L9.17,16.63,6.44,19S3,22.92,2.5,22.5s.63-1.85.88-2.19,1.79-2.23,2.29-2.85A34.89,34.89,0,0,1,8.24,15c.52-.5,2.23-3.13,2.78-3.66.32-.3,1.1-.86,1.69-1.28h0a6.1,6.1,0,0,1-.49-2c.06-.67,1-2.83,1.93-2.75"/>
  <line x1="15.5" y1="2.5" x2="15.5" y2="1.5"/>
  <line x1="15.5" y1="5.5" x2="15.5" y2="4.5"/>
  <line x1="14.5" y1="3.5" x2="13.5" y2="3.5"/>
  <line x1="17.5" y1="3.5" x2="16.5" y2="3.5"/>
</svg>